<?xml version="1.0" encoding="utf-8"?>
<!-- Generator: Adobe Illustrator 16.0.0, SVG Export Plug-In . SVG Version: 6.00 Build 0)  -->
<!DOCTYPE svg PUBLIC "-//W3C//DTD SVG 1.1//EN" "http://www.w3.org/Graphics/SVG/1.1/DTD/svg11.dtd">
<svg version="1.1" id="Layer_1" xmlns="http://www.w3.org/2000/svg" xmlns:xlink="http://www.w3.org/1999/xlink" x="0px" y="0px"
	 width="573.85px" height="573.255px" viewBox="0 0 573.85 573.255" enable-background="new 0 0 573.85 573.255"
	 xml:space="preserve">
<path fill="#8CBC68" d="M558.968,141.081c0,0-18.454-88.101-98.222-119.056C423.244,7.738,354.786,0.595,287.521,0
	c-67.862,0.595-136.319,7.738-173.822,22.025C33.931,52.98,15.477,141.081,15.477,141.081C3.571,191.085,0,241.684,0,286.33
	c0,45.241,3.571,95.84,15.477,145.844c0,0,18.454,88.102,98.222,119.057c37.503,14.287,105.96,21.43,173.227,22.025
	c67.267-0.596,135.724-7.143,173.227-22.025c79.768-30.955,98.221-119.057,98.221-119.057
	c11.906-50.004,16.073-100.603,15.478-145.248C574.445,241.684,570.873,191.085,558.968,141.081z M406.89,305.828H302.138v109.85
	h-29.664v-109.85H167.723v-27.81h104.751V169.095h29.664v108.923H406.89V305.828z"/>
</svg>
