<?xml version="1.0" encoding="utf-8"?>
<!-- Generator: Adobe Illustrator 16.0.0, SVG Export Plug-In . SVG Version: 6.00 Build 0)  -->
<!DOCTYPE svg PUBLIC "-//W3C//DTD SVG 1.1//EN" "http://www.w3.org/Graphics/SVG/1.1/DTD/svg11.dtd">
<svg version="1.1" id="Layer_1" xmlns="http://www.w3.org/2000/svg" xmlns:xlink="http://www.w3.org/1999/xlink" x="0px" y="0px"
	 width="573.912px" height="573.255px" viewBox="8.334 57.229 573.912 573.255"
	 enable-background="new 8.334 57.229 573.912 573.255" xml:space="preserve">
<path fill="#8BBB68" d="M567.302,198.31c0,0-18.454-88.101-98.222-119.056c-37.502-14.287-105.96-21.43-173.226-22.025
	c-67.862,0.595-136.319,7.738-173.822,22.025C42.265,110.209,23.811,198.31,23.811,198.31
	C11.906,248.314,8.334,298.913,8.334,343.559c0,45.241,3.571,95.839,15.477,145.843c0,0,18.454,88.102,98.222,119.057
	c37.503,14.287,105.96,21.43,173.227,22.025c67.267-0.596,135.724-7.143,173.227-22.025
	c79.768-30.955,98.221-119.057,98.221-119.057c11.906-50.004,16.073-100.602,15.478-145.248
	C582.78,298.913,579.207,248.314,567.302,198.31z M166.678,234.027h48.813v38.693h-48.813V234.027z M215.491,453.685h-48.813
	v-38.693h48.813V453.685z M215.491,361.417h-48.813v-38.693h48.813V361.417z M435.745,453.685h-179.18v-38.693h179.18V453.685z
	 M435.745,361.417h-179.18v-38.693h179.18V361.417z M435.745,272.72h-179.18v-38.693h179.18V272.72z"/>
</svg>
