<?xml version="1.0" encoding="utf-8"?>
<!-- Generator: Adobe Illustrator 16.0.0, SVG Export Plug-In . SVG Version: 6.00 Build 0)  -->
<!DOCTYPE svg PUBLIC "-//W3C//DTD SVG 1.1//EN" "http://www.w3.org/Graphics/SVG/1.1/DTD/svg11.dtd">
<svg version="1.1" id="Layer_1" xmlns="http://www.w3.org/2000/svg" xmlns:xlink="http://www.w3.org/1999/xlink" x="0px" y="0px"
	 width="481.007px" height="480.855px" viewBox="56.947 106.124 481.007 480.855"
	 enable-background="new 56.947 106.124 481.007 480.855" xml:space="preserve">
<path fill="#8BBB68" d="M436.752,315.667c-1.512-1.511-3.081-3.081-4.593-4.592c-1.221-1.221-2.441-2.442-3.604-3.604
	c-22.381-22.381-44.762-44.762-67.144-67.144c-8.196-8.197-16.451-16.394-24.648-24.648c-2.79-2.79-5.58-5.581-8.313-8.371
	c-2.732-2.732-5.465-5.464-8.197-8.196c-10.114,10.115-20.288,20.288-30.403,30.403c-14.649,14.649-29.299,29.299-43.948,43.948
	c-16.742,16.742-33.426,33.427-50.11,50.111c-16.684,16.684-33.368,33.368-50.053,50.052l-43.482,43.483
	c-10.174,10.172-20.347,20.346-30.521,30.52c-2.79,2.789-5.58,5.58-8.371,8.371c-3.197,3.197-5.987,5.754-6.162,10.986
	c-0.581,15.115,0,30.346,0.059,45.461c0,19.764,0.058,39.471,0.058,59.236c0,1.164,0,2.385,0,3.547
	c0,6.277,5.29,11.627,11.627,11.627c15.057,0,30.112,0,45.169,0.057c19.823,0,39.589,0.059,59.412,0.059
	c1.802,0,3.488,0.059,5.231-0.174c2.907-0.406,5.29-1.861,7.325-3.838c1.918-1.918,3.837-3.836,5.755-5.754
	c8.836-8.836,17.614-17.615,26.45-26.451c13.662-13.66,27.323-27.322,40.984-40.982c16.335-16.336,32.67-32.672,49.063-49.064
	c16.917-16.918,33.775-33.775,50.692-50.692c15.288-15.289,30.636-30.636,45.925-45.925c11.568-11.569,23.137-23.137,34.705-34.706
	c1.802-1.802,3.662-3.662,5.522-5.464C442.275,321.189,439.542,318.457,436.752,315.667z"/>
<path fill="#8BBB68" d="M528.021,193.355c-4.535-4.534-9.069-9.069-13.661-13.661c-16.045-16.045-32.031-32.031-48.076-48.076
	c-4.941-4.941-9.941-9.883-14.882-14.882c-2.965-2.965-6.278-5.639-10.115-7.383c-10.231-4.65-22.963-4.534-32.438,2.035
	c-5.174,3.604-9.476,8.487-13.952,12.905c-7.499,7.5-14.998,14.999-22.497,22.498c-9.185,9.185-18.428,18.312-27.613,27.497
	l108.477,108.476c2.731,2.732,5.464,5.464,8.196,8.197l8.196,8.197c3.896-3.895,7.849-7.848,11.743-11.743
	c12.731-12.731,25.462-25.462,38.193-38.193c2.849-2.849,5.639-5.639,8.487-8.487c0.116-0.116,0.291-0.291,0.407-0.407
	c0.174-0.174,0.29-0.291,0.465-0.465C541.332,226.607,540.867,206.261,528.021,193.355z"/>
</svg>
