<?xml version="1.0" encoding="utf-8"?>
<!-- Generator: Adobe Illustrator 16.0.0, SVG Export Plug-In . SVG Version: 6.00 Build 0)  -->
<!DOCTYPE svg PUBLIC "-//W3C//DTD SVG 1.1//EN" "http://www.w3.org/Graphics/SVG/1.1/DTD/svg11.dtd">
<svg version="1.1" id="Layer_1" xmlns="http://www.w3.org/2000/svg" xmlns:xlink="http://www.w3.org/1999/xlink" x="0px" y="0px"
	 width="549.489px" height="549.491px" viewBox="22.896 71.79 549.489 549.491"
	 enable-background="new 22.896 71.79 549.489 549.491" xml:space="preserve">
<g>
	<path d="M448.182,357.985h-81.855c-37.875,0-68.686-30.81-68.686-68.686v-11.448c0-9.052,1.103-18.032,3.183-26.822l-11.541-4.776
		v-39.608c0-11.219-9.157-20.377-20.376-20.377h-57.01c-11.219,0-20.377,9.159-20.377,20.377v39.608l-27.933,11.563l-25.185-25.299
		c-7.785-7.671-21.179-7.671-28.848,0l-40.297,40.296c-8.013,8.013-8.013,20.949,0,28.962l25.071,25.071
		c-6.068,13.737-9.731,22.437-11.906,28.046H43.272c-11.219,0-20.376,9.159-20.376,20.377v57.01
		c0,11.219,9.157,20.377,20.376,20.377h39.609l11.563,27.932l-25.186,25.184c-3.893,3.895-6.067,9.045-6.067,14.539
		c0,5.381,2.175,10.533,6.067,14.311l40.297,40.41c7.669,7.67,21.063,7.67,28.848,0l25.185-25.299l27.933,11.563v39.607
		c0,11.219,9.158,20.379,20.377,20.379h57.01c11.219,0,20.376-9.16,20.376-20.379v-39.607l27.933-11.563l25.3,25.299
		c7.67,7.67,21.063,7.67,28.849,0l40.295-40.41c3.778-3.777,5.953-8.93,5.953-14.311c0-5.494-2.175-10.645-5.953-14.539
		l-25.299-25.184l11.562-27.932h39.609c11.219,0,20.377-9.158,20.377-20.377v-57.01C457.907,367.963,453.99,361.583,448.182,357.985
		z M240.402,505.314c-55.979,0-101.541-45.561-101.541-101.541c0-55.979,45.562-101.655,101.541-101.655
		c56.094,0,101.655,45.676,101.655,101.655C342.057,459.753,296.495,505.314,240.402,505.314z"/>
	<circle cx="446.46" cy="129.029" r="57.239"/>
	<path d="M508.192,180.063c-14.71,17.763-36.919,29.103-61.731,29.103c-24.812,0-47.021-11.34-61.73-29.104
		c-36.014,19.699-64.194,55.204-64.194,97.787v11.448c0,25.299,20.605,45.791,45.791,45.791h160.268
		c25.299,0,45.791-20.492,45.791-45.791v-11.448C572.385,235.267,544.205,199.761,508.192,180.063z"/>
</g>
</svg>
