<?xml version="1.0" encoding="utf-8"?>
<!-- Generator: Adobe Illustrator 16.0.0, SVG Export Plug-In . SVG Version: 6.00 Build 0)  -->
<!DOCTYPE svg PUBLIC "-//W3C//DTD SVG 1.1//EN" "http://www.w3.org/Graphics/SVG/1.1/DTD/svg11.dtd">
<svg version="1.1" id="Layer_1" xmlns="http://www.w3.org/2000/svg" xmlns:xlink="http://www.w3.org/1999/xlink" x="0px" y="0px"
	 width="669.357px" height="410px" viewBox="-75.624 73.376 669.357 410" enable-background="new -75.624 73.376 669.357 410"
	 xml:space="preserve">
<rect x="13.858" y="6.659" transform="matrix(-0.7071 -0.7071 0.7071 -0.7071 286.8237 667.8766)" fill="none" width="535.752" height="535.752"/>
<path fill="#8BBB68" d="M546.509,160.536c-30.442-30.441-70.922-47.215-113.99-47.215c-18.917,0-37.43,3.25-55.045,9.644
	c-17.027,6.184-32.796,15.156-46.875,26.669c-27.377,22.368-46.786,53.328-54.91,87.481l-333.571-0.005
	c-2.315,0-4.201,1.886-4.193,4.192l-0.004,66.461c0,2.316,1.877,4.193,4.193,4.193L4.38,311.96l0.004,62.259
	c-0.005,2.312,1.873,4.188,4.188,4.188l66.448,0.001c2.315-0.001,4.191-1.877,4.194-4.193l-0.001-62.255h58.072l0.004,62.259
	c-0.005,2.313,1.876,4.193,4.188,4.188h66.446c2.306,0.009,4.193-1.878,4.193-4.192l0.004-62.252l63.564-0.004
	c8.136,34.149,27.541,65.113,54.91,87.481c14.084,11.499,29.86,20.475,46.875,26.67c17.619,6.39,36.132,9.647,55.045,9.644
	c43.067-0.009,83.549-16.774,114.007-47.216c30.45-30.45,47.216-70.938,47.212-114.004
	C593.729,231.47,576.962,190.99,546.509,160.536z M432.522,360.307c-47.3,0.013-85.784-38.472-85.78-85.78
	c0.003-47.292,38.479-85.769,85.779-85.764c47.3,0.004,85.777,38.48,85.772,85.772C518.299,321.835,479.822,360.312,432.522,360.307
	z"/>
</svg>
